<?xml version="1.0" encoding="utf-8"?>
<!-- Generator: Adobe Illustrator 17.0.2, SVG Export Plug-In . SVG Version: 6.00 Build 0)  -->
<!DOCTYPE svg PUBLIC "-//W3C//DTD SVG 1.1//EN" "http://www.w3.org/Graphics/SVG/1.1/DTD/svg11.dtd">
<svg version="1.1" id="Layer_1" xmlns="http://www.w3.org/2000/svg" xmlns:xlink="http://www.w3.org/1999/xlink" x="0px" y="0px"
	 width="1038.809px" height="324.246px" viewBox="0 0 1038.809 324.246" enable-background="new 0 0 1038.809 324.246"
	 xml:space="preserve">
<g>
	<g>
		<path fill="#00B461" d="M378.531,153.127c-7.466-4.222-13.341-10.064-17.623-17.531c-4.285-7.463-6.425-15.907-6.425-25.331
			c0-9.423,2.14-17.866,6.425-25.331c4.282-7.463,10.157-13.277,17.623-17.439c7.463-4.16,15.847-6.242,25.149-6.242
			c9.298,0,17.682,2.082,25.148,6.242c7.463,4.162,13.308,9.976,17.531,17.439c4.222,7.465,6.333,15.909,6.333,25.331
			c0,9.425-2.111,17.868-6.333,25.331c-4.223,7.467-10.068,13.309-17.531,17.531c-7.466,4.222-15.85,6.334-25.148,6.334
			C394.377,159.461,385.994,157.349,378.531,153.127z M422.127,143.215c5.444-3.121,9.697-7.555,12.758-13.309
			c3.058-5.75,4.589-12.299,4.589-19.641c0-7.343-1.531-13.887-4.589-19.641c-3.061-5.75-7.314-10.189-12.758-13.309
			c-5.446-3.121-11.597-4.681-18.448-4.681c-6.855,0-13.005,1.56-18.449,4.681c-5.446,3.121-9.729,7.559-12.849,13.309
			c-3.121,5.754-4.681,12.299-4.681,19.641c0,7.343,1.56,13.891,4.681,19.641c3.12,5.754,7.403,10.189,12.849,13.309
			c5.444,3.121,11.594,4.681,18.449,4.681C410.531,147.896,416.681,146.336,422.127,143.215z"/>
		<path fill="#00B461" d="M546.308,67.402c7.343,4.102,13.095,9.884,17.257,17.347c4.158,7.467,6.242,15.971,6.242,25.516
			c0,9.669-2.084,18.235-6.242,25.698c-4.162,7.467-9.884,13.249-17.164,17.349c-7.283,4.102-15.512,6.149-24.69,6.149
			c-7.832,0-14.9-1.621-21.202-4.866c-6.304-3.241-11.472-7.984-15.512-14.226v53.785h-13.033V61.987h12.481v19.092
			c3.917-6.362,9.088-11.258,15.512-14.685c6.426-3.426,13.677-5.14,21.753-5.14C530.766,61.252,538.966,63.302,546.308,67.402z
			 M539.15,143.215c5.508-3.121,9.822-7.555,12.942-13.309c3.119-5.75,4.679-12.299,4.679-19.641c0-7.343-1.56-13.859-4.679-19.549
			c-3.121-5.692-7.435-10.127-12.942-13.309c-5.508-3.181-11.629-4.773-18.356-4.773c-6.855,0-13.005,1.592-18.45,4.773
			c-5.445,3.183-9.729,7.617-12.848,13.309c-3.121,5.69-4.681,12.206-4.681,19.549c0,7.343,1.56,13.891,4.681,19.641
			c3.119,5.754,7.403,10.189,12.848,13.309s11.595,4.681,18.45,4.681C527.521,147.896,533.643,146.336,539.15,143.215z"/>
		<path fill="#00B461" d="M636.622,152.668c-2.449,2.204-5.447,3.887-8.995,5.048c-3.55,1.161-7.283,1.745-11.198,1.745
			c-9.057,0-16.033-2.447-20.927-7.343c-4.896-4.894-7.343-11.809-7.343-20.744V40.877h13.035v21.109h29.186V73h-29.186v57.64
			c0,5.754,1.404,10.129,4.222,13.125c2.814,3,6.911,4.499,12.299,4.499c5.875,0,10.646-1.653,14.318-4.958L636.622,152.668z"/>
		<path fill="#00B461" d="M652.772,38.123c-1.835-1.837-2.752-4.039-2.752-6.609c0-2.447,0.917-4.589,2.752-6.426
			c1.837-1.835,4.1-2.752,6.793-2.752c2.69,0,4.956,0.889,6.791,2.661c1.837,1.775,2.754,3.885,2.754,6.332
			c0,2.694-0.917,4.956-2.754,6.793c-1.835,1.835-4.102,2.754-6.791,2.754C656.872,40.877,654.609,39.959,652.772,38.123z
			 M652.956,61.987h13.033v96.556h-13.033V61.987z"/>
		<path fill="#00B461" d="M843.956,71.716c6.913,6.976,10.371,17.255,10.371,30.839v55.988h-13.033V103.84
			c0-10.034-2.417-17.684-7.25-22.947C829.209,75.633,822.388,73,813.577,73c-10.036,0-17.929,3.093-23.681,9.27
			c-5.752,6.181-8.626,14.717-8.626,25.608v50.665h-13.035V103.84c0-10.034-2.417-17.684-7.25-22.947
			C756.149,75.633,749.266,73,740.335,73c-9.914,0-17.778,3.093-23.588,9.27c-5.814,6.181-8.721,14.717-8.721,25.608v50.665h-13.033
			V61.987h12.483v17.622c3.424-5.873,8.197-10.399,14.318-13.582c6.117-3.181,13.153-4.773,21.109-4.773
			c8.077,0,15.08,1.715,21.019,5.14c5.933,3.428,10.371,8.506,13.307,15.235c3.548-6.362,8.656-11.35,15.327-14.96
			c6.669-3.608,14.288-5.415,22.854-5.415C827.528,61.252,837.041,64.74,843.956,71.716z"/>
		<path fill="#00B461" d="M970.892,61.987v96.556h-12.483v-19.092c-3.917,6.488-9.086,11.444-15.512,14.87
			c-6.424,3.428-13.674,5.14-21.751,5.14c-9.06,0-17.257-2.08-24.599-6.242c-7.343-4.16-13.095-9.974-17.255-17.439
			c-4.162-7.463-6.242-15.971-6.242-25.516s2.08-18.049,6.242-25.516c4.16-7.463,9.912-13.245,17.255-17.347
			c7.343-4.1,15.54-6.149,24.599-6.149c7.83,0,14.896,1.623,21.202,4.864c6.302,3.245,11.472,7.986,15.512,14.226V61.987H970.892z
			 M940.51,143.215c5.445-3.121,9.729-7.555,12.85-13.309c3.121-5.75,4.681-12.299,4.681-19.641c0-7.343-1.56-13.887-4.681-19.641
			c-3.121-5.75-7.405-10.189-12.85-13.309c-5.445-3.121-11.534-4.681-18.263-4.681c-6.855,0-13.005,1.56-18.448,4.681
			c-5.447,3.121-9.729,7.559-12.85,13.309c-3.121,5.754-4.681,12.299-4.681,19.641c0,7.343,1.56,13.891,4.681,19.641
			c3.121,5.754,7.403,10.189,12.85,13.309c5.443,3.121,11.593,4.681,18.448,4.681C928.976,147.896,935.065,146.336,940.51,143.215z"
			/>
		<path fill="#00B461" d="M1006.961,152.118c-4.713-4.894-7.068-11.685-7.068-20.377V22.337h13.033V130.64
			c0,5.754,1.346,10.129,4.039,13.125c2.69,3,6.729,4.499,12.114,4.499c3.426,0,6.362-0.552,8.813-1.653l0.917,10.831
			c-3.795,1.346-7.71,2.02-11.747,2.02C1018.37,159.461,1011.671,157.014,1006.961,152.118z"/>
		<path fill="#00B461" d="M453.61,191.162v84.807c0,16.398-4.009,28.546-12.024,36.439c-8.017,7.894-20.101,11.839-36.254,11.839
			c-8.934,0-17.41-1.316-25.424-3.945c-8.017-2.633-14.534-6.274-19.55-10.923l6.609-9.912c4.649,4.158,10.308,7.403,16.98,9.727
			c6.669,2.325,13.676,3.488,21.018,3.488c12.235,0,21.231-2.844,26.984-8.536c5.751-5.69,8.628-14.533,8.628-26.525v-12.299
			c-4.039,6.121-9.333,10.77-15.879,13.951c-6.548,3.183-13.799,4.773-21.753,4.773c-9.057,0-17.287-1.99-24.69-5.967
			c-7.406-3.975-13.216-9.545-17.439-16.705c-4.222-7.158-6.333-15.265-6.333-24.322c0-9.055,2.111-17.132,6.333-24.23
			c4.223-7.096,10.005-12.603,17.348-16.521c7.343-3.915,15.603-5.875,24.781-5.875c8.198,0,15.604,1.653,22.212,4.956
			c6.609,3.303,11.933,8.077,15.971,14.318v-18.54H453.61z M423.138,267.984c5.627-2.996,10.004-7.188,13.125-12.573
			s4.681-11.502,4.681-18.358c0-6.851-1.56-12.94-4.681-18.265c-3.121-5.323-7.466-9.481-13.034-12.481
			c-5.57-2.998-11.903-4.499-18.999-4.499c-6.976,0-13.248,1.47-18.816,4.406c-5.57,2.936-9.913,7.098-13.033,12.483
			c-3.121,5.385-4.681,11.504-4.681,18.356c0,6.855,1.56,12.973,4.681,18.358c3.12,5.385,7.463,9.577,13.033,12.573
			c5.568,3,11.84,4.497,18.816,4.497S417.507,270.984,423.138,267.984z"/>
		<path fill="#00B461" d="M498.12,195.384c6.061-3.303,13.554-4.956,22.487-4.956v12.666l-3.121-0.183
			c-10.157,0-18.111,3.119-23.863,9.36s-8.628,14.992-8.628,26.25v49.197h-13.031v-96.556h12.481v18.907
			C487.503,203.585,492.063,198.687,498.12,195.384z"/>
		<path fill="#00B461" d="M555.517,282.302c-7.467-4.222-13.34-10.064-17.622-17.531c-4.286-7.463-6.426-15.907-6.426-25.331
			c0-9.423,2.14-17.866,6.426-25.331c4.282-7.463,10.155-13.277,17.622-17.439c7.463-4.16,15.847-6.242,25.149-6.242
			c9.298,0,17.682,2.082,25.149,6.242c7.463,4.162,13.307,9.976,17.529,17.439c4.222,7.465,6.334,15.909,6.334,25.331
			c0,9.425-2.112,17.868-6.334,25.331c-4.222,7.467-10.066,13.309-17.529,17.531c-7.467,4.222-15.851,6.334-25.149,6.334
			C571.363,288.636,562.98,286.524,555.517,282.302z M599.114,272.39c5.443-3.121,9.697-7.555,12.758-13.309
			c3.057-5.75,4.589-12.299,4.589-19.641s-1.532-13.887-4.589-19.641c-3.061-5.75-7.315-10.189-12.758-13.309
			c-5.447-3.121-11.597-4.681-18.448-4.681c-6.855,0-13.005,1.56-18.448,4.681c-5.447,3.121-9.729,7.559-12.85,13.309
			c-3.121,5.754-4.681,12.299-4.681,19.641s1.56,13.891,4.681,19.641c3.121,5.754,7.403,10.189,12.85,13.309
			c5.443,3.121,11.593,4.681,18.448,4.681C587.517,277.072,593.666,275.511,599.114,272.39z"/>
		<path fill="#00B461" d="M797.825,191.162v53.418c0,14.318-3.428,25.239-10.281,32.766c-6.855,7.525-16.952,11.29-30.287,11.29
			c-8.446,0-15.512-1.621-21.204-4.866c-5.69-3.241-10.066-8.412-13.125-15.512c-3.059,6.976-7.405,12.116-13.033,15.419
			c-5.63,3.305-12.728,4.958-21.294,4.958c-13.34,0-23.436-3.765-30.287-11.29c-6.855-7.527-10.281-18.448-10.281-32.766v-53.418
			h13.035v52.317c0,11.38,2.202,19.796,6.607,25.239c4.406,5.447,11.382,8.169,20.927,8.169c9.423,0,16.43-2.754,21.019-8.261
			c4.589-5.505,6.883-14.009,6.883-25.516v-51.948h13.033v51.948c0,11.506,2.264,20.01,6.793,25.516
			c4.525,5.508,11.565,8.261,21.109,8.261c9.298,0,16.184-2.722,20.652-8.169c4.465-5.443,6.699-13.859,6.699-25.239v-52.317
			H797.825z"/>
		<path fill="#00B461" d="M829.306,285.239c-7.158-2.262-12.758-5.108-16.795-8.534l5.872-10.281
			c4.039,3.185,9.116,5.782,15.237,7.802c6.117,2.02,12.483,3.029,19.092,3.029c8.811,0,15.327-1.376,19.549-4.13
			c4.222-2.754,6.334-6.637,6.334-11.657c0-3.548-1.165-6.334-3.488-8.352c-2.327-2.02-5.265-3.548-8.813-4.591
			c-3.55-1.037-8.259-2.048-14.134-3.029c-7.834-1.468-14.134-2.964-18.907-4.497c-4.773-1.528-8.843-4.13-12.206-7.802
			c-3.367-3.67-5.048-8.749-5.048-15.235c0-8.079,3.363-14.685,10.094-19.826c6.729-5.14,16.091-7.71,28.087-7.71
			c6.242,0,12.481,0.826,18.723,2.477c6.242,1.653,11.382,3.827,15.419,6.518l-5.69,10.461c-7.956-5.506-17.439-8.259-28.452-8.259
			c-8.323,0-14.593,1.468-18.817,4.404c-4.222,2.938-6.332,6.793-6.332,11.567c0,3.67,1.193,6.607,3.58,8.811
			c2.385,2.202,5.351,3.825,8.903,4.864c3.548,1.041,8.444,2.112,14.685,3.213c7.71,1.468,13.887,2.936,18.54,4.404
			c4.649,1.47,8.626,3.979,11.932,7.527c3.303,3.55,4.956,8.444,4.956,14.685c0,8.444-3.52,15.145-10.556,20.101
			c-7.038,4.956-16.795,7.435-29.278,7.435C843.959,288.636,836.466,287.505,829.306,285.239z"/>
	</g>
	<linearGradient id="SVGID_1_" gradientUnits="userSpaceOnUse" x1="152.9482" y1="347.6573" x2="152.9482" y2="67.5933">
		<stop  offset="0" style="stop-color:#66F4E4"/>
		<stop  offset="1" style="stop-color:#00B461"/>
	</linearGradient>
	<path fill="url(#SVGID_1_)" d="M200.573,271.479c-0.418-0.456-0.874-0.912-1.311-1.349c-1.805-1.805-3.611-3.497-5.454-5.093
		c2.109,0.399,4.257,0.779,6.461,1.083c1.311,0.19,2.642,0.361,3.972,0.513c5.606,0.646,11.479,0.988,17.503,0.988
		c30.635,0,72.35-8.875,84.152-21.627c-11.802-12.752-53.517-21.627-84.152-21.627c-4.01,0-7.925,0.152-11.764,0.437
		c9.312-6.386,18.624-14.101,27.538-22.996c28.659-28.659,59.37-75.961,58.496-98.899c-22.938-0.874-70.241,29.837-98.899,58.496
		c-4.542,4.561-8.799,9.217-12.714,13.93c2.128-12.524,3.288-25.979,3.288-39.985c0-24.63-3.554-53.745-9.692-79.04
		C171.877,30.996,163.192,9.483,152.948,0C142.705,9.483,134.02,30.996,127.9,56.31c-6.138,25.295-9.692,54.41-9.692,79.04
		c0,14.006,1.159,27.461,3.288,39.985c-3.915-4.713-8.172-9.369-12.714-13.93c-28.659-28.659-75.961-59.37-98.899-58.496
		c-0.874,22.938,29.837,70.241,58.496,98.899c8.913,8.894,18.225,16.61,27.538,22.996c-3.839-0.285-7.754-0.437-11.764-0.437
		c-30.635,0-72.35,8.875-84.152,21.627c11.802,12.752,53.517,21.627,84.152,21.627c6.025,0,11.897-0.342,17.503-0.988
		c1.33-0.152,2.661-0.323,3.972-0.513c2.204-0.304,4.352-0.684,6.461-1.083c-1.843,1.596-3.649,3.288-5.454,5.093
		c-0.437,0.437-0.893,0.893-1.311,1.349c-1.463,1.482-2.889,3.041-4.333,4.675c-13.778,15.641-26.758,37.021-26.321,48.081
		c12.543,0.494,46.979-16.306,62.658-31.984c0.627-0.627,1.235-1.254,1.843-1.881c0.209-0.209,0.399-0.418,0.589-0.627
		c2.813-3.098,4.542-7.222,4.542-11.726v-23.718c-0.608-12.049-10.566-21.627-22.748-21.627h-5.549l36.945-50.533l36.945,50.533
		h-5.549c-12.182,0-22.14,9.578-22.748,21.627v23.718c0,4.504,1.729,8.628,4.542,11.726c0.19,0.209,0.38,0.418,0.589,0.627
		c0.608,0.627,1.216,1.254,1.843,1.881c15.679,15.679,50.115,32.479,62.658,31.984c0.437-11.061-12.543-32.441-26.321-48.081
		C203.462,274.52,202.037,272.962,200.573,271.479z"/>
</g>
</svg>
