<?xml version="1.0" encoding="utf-8"?>
<!-- Generator: Adobe Illustrator 17.0.2, SVG Export Plug-In . SVG Version: 6.00 Build 0)  -->
<!DOCTYPE svg PUBLIC "-//W3C//DTD SVG 1.1//EN" "http://www.w3.org/Graphics/SVG/1.1/DTD/svg11.dtd">
<svg version="1.1" id="Layer_1" xmlns="http://www.w3.org/2000/svg" xmlns:xlink="http://www.w3.org/1999/xlink" x="0px" y="0px"
	 width="305.896px" height="324.246px" viewBox="0 0 305.896 324.246" enable-background="new 0 0 305.896 324.246"
	 xml:space="preserve">
<g>
	<linearGradient id="SVGID_1_" gradientUnits="userSpaceOnUse" x1="152.9482" y1="347.6573" x2="152.9482" y2="67.5933">
		<stop  offset="0" style="stop-color:#66F4E4"/>
		<stop  offset="1" style="stop-color:#00B461"/>
	</linearGradient>
	<path fill="url(#SVGID_1_)" d="M200.573,271.479c-0.418-0.456-0.874-0.912-1.311-1.349c-1.805-1.805-3.611-3.497-5.454-5.093
		c2.109,0.399,4.257,0.779,6.461,1.083c1.311,0.19,2.642,0.361,3.972,0.513c5.606,0.646,11.479,0.988,17.503,0.988
		c30.635,0,72.35-8.875,84.152-21.627c-11.802-12.752-53.517-21.627-84.152-21.627c-4.01,0-7.925,0.152-11.764,0.437
		c9.312-6.386,18.624-14.101,27.538-22.996c28.659-28.659,59.37-75.961,58.496-98.899c-22.938-0.874-70.241,29.837-98.899,58.496
		c-4.542,4.561-8.799,9.217-12.714,13.93c2.128-12.524,3.288-25.979,3.288-39.985c0-24.63-3.554-53.745-9.692-79.04
		C171.877,30.996,163.192,9.483,152.948,0C142.705,9.483,134.02,30.996,127.9,56.31c-6.138,25.295-9.692,54.41-9.692,79.04
		c0,14.006,1.159,27.461,3.288,39.985c-3.915-4.713-8.172-9.369-12.714-13.93c-28.659-28.659-75.961-59.37-98.899-58.496
		c-0.874,22.938,29.837,70.241,58.496,98.899c8.913,8.894,18.225,16.61,27.538,22.996c-3.839-0.285-7.754-0.437-11.764-0.437
		c-30.635,0-72.35,8.875-84.152,21.627c11.802,12.752,53.517,21.627,84.152,21.627c6.025,0,11.897-0.342,17.503-0.988
		c1.33-0.152,2.661-0.323,3.972-0.513c2.204-0.304,4.352-0.684,6.461-1.083c-1.843,1.596-3.649,3.288-5.454,5.093
		c-0.437,0.437-0.893,0.893-1.311,1.349c-1.463,1.482-2.889,3.041-4.333,4.675c-13.778,15.641-26.758,37.021-26.321,48.081
		c12.543,0.494,46.979-16.306,62.658-31.984c0.627-0.627,1.235-1.254,1.843-1.881c0.209-0.209,0.399-0.418,0.589-0.627
		c2.813-3.098,4.542-7.222,4.542-11.726v-23.718c-0.608-12.049-10.566-21.627-22.748-21.627h-5.549l36.945-50.533l36.945,50.533
		h-5.549c-12.182,0-22.14,9.578-22.748,21.627v23.718c0,4.504,1.729,8.628,4.542,11.726c0.19,0.209,0.38,0.418,0.589,0.627
		c0.608,0.627,1.216,1.254,1.843,1.881c15.679,15.679,50.115,32.479,62.658,31.984c0.437-11.061-12.543-32.441-26.321-48.081
		C203.462,274.52,202.037,272.962,200.573,271.479z"/>
</g>
</svg>
